{
    "asset" : {
        "generator" : "Khronos glTF Blender I/O v1.5.17",
        "version" : "2.0"
    },
    "scene" : 0,
    "scenes" : [
        {
            "name" : "Scene",
            "nodes" : [
                0,
                1,
                2,
                3,
                4,
                5,
                6,
                7,
                8
            ]
        }
    ],
    "nodes" : [
        {
            "name" : "Light",
            "rotation" : [
                0.16907575726509094,
                0.7558803558349609,
                -0.27217137813568115,
                0.570947527885437
            ],
            "translation" : [
                3.9604334831237793,
                11.138792037963867,
                -1.7351758480072021
            ]
        },
        {
            "name" : "Camera",
            "rotation" : [
                0.483536034822464,
                0.33687159419059753,
                -0.20870360732078552,
                0.7804827094078064
            ],
            "translation" : [
                7.243079662322998,
                10.193239212036133,
                6.19606876373291
            ]
        },
        {
            "mesh" : 0,
            "name" : "leaf",
            "rotation" : [
                0,
                0.5263553261756897,
                0,
                -0.8502647280693054
            ],
            "scale" : [
                1.0581108331680298,
                1.0581107139587402,
                1.0581108331680298
            ],
            "translation" : [
                -0.115812748670578,
                4.434930324554443,
                -0.7297219634056091
            ]
        },
        {
            "mesh" : 1,
            "name" : "stem",
            "scale" : [
                0.18206538259983063,
                0.18206538259983063,
                0.18206538259983063
            ],
            "translation" : [
                -0.1471272110939026,
                5.234930038452148,
                -0.4823780655860901
            ]
        },
        {
            "name" : "Empty",
            "translation" : [
                -0.115812748670578,
                5.234930038452148,
                -0.7297219634056091
            ]
        },
        {
            "mesh" : 2,
            "name" : "Circle",
            "scale" : [
                2.413294792175293,
                2.413294792175293,
                2.413294792175293
            ],
            "translation" : [
                -0.1585407853126526,
                3.1202638149261475,
                -0.6608201861381531
            ]
        },
        {
            "name" : "Camera.001",
            "rotation" : [
                0.483536034822464,
                0.33687159419059753,
                -0.20870360732078552,
                0.7804827094078064
            ],
            "translation" : [
                17.231658935546875,
                10.281710624694824,
                22.328716278076172
            ]
        },
        {
            "name" : "Empty.001",
            "translation" : [
                9.872767448425293,
                5.32340145111084,
                15.402923583984375
            ]
        },
        {
            "name" : "BezierCurve",
            "rotation" : [
                0,
                0,
                0.7100451588630676,
                0.704156219959259
            ],
            "translation" : [
                -0.1633082628250122,
                4.458314895629883,
                -0.6804503798484802
            ]
        }
    ],
    "materials" : [
        {
            "doubleSided" : true,
            "name" : "Material.002",
            "pbrMetallicRoughness" : {
                "baseColorFactor" : [
                    0.800000011920929,
                    0.800000011920929,
                    0.800000011920929,
                    1
                ],
                "metallicFactor" : 0
            }
        },
        {
            "doubleSided" : true,
            "name" : "Material.003",
            "pbrMetallicRoughness" : {
                "baseColorFactor" : [
                    0.800000011920929,
                    0.800000011920929,
                    0.800000011920929,
                    1
                ],
                "metallicFactor" : 0,
                "roughnessFactor" : 0.5
            }
        },
        {
            "doubleSided" : true,
            "name" : "Material.004",
            "pbrMetallicRoughness" : {
                "baseColorFactor" : [
                    0.800000011920929,
                    0.800000011920929,
                    0.800000011920929,
                    1
                ],
                "metallicFactor" : 0,
                "roughnessFactor" : 0.5
            }
        }
    ],
    "meshes" : [
        {
            "name" : "Circle",
            "primitives" : [
                {
                    "attributes" : {
                        "POSITION" : 0,
                        "NORMAL" : 1,
                        "TEXCOORD_0" : 2
                    },
                    "indices" : 3,
                    "material" : 0
                }
            ]
        },
        {
            "name" : "Circle.001",
            "primitives" : [
                {
                    "attributes" : {
                        "POSITION" : 4,
                        "NORMAL" : 5,
                        "TEXCOORD_0" : 6
                    },
                    "indices" : 7,
                    "material" : 1
                }
            ]
        },
        {
            "name" : "Circle.002",
            "primitives" : [
                {
                    "attributes" : {
                        "POSITION" : 8,
                        "NORMAL" : 9,
                        "TEXCOORD_0" : 10
                    },
                    "indices" : 11,
                    "material" : 2
                }
            ]
        }
    ],
    "accessors" : [
        {
            "bufferView" : 0,
            "componentType" : 5126,
            "count" : 70,
            "max" : [
                5.628868579864502,
                1.2658944129943848,
                2.057206392288208
            ],
            "min" : [
                -0.013967275619506836,
                -0.6347367763519287,
                -1.7566204071044922
            ],
            "type" : "VEC3"
        },
        {
            "bufferView" : 1,
            "componentType" : 5126,
            "count" : 70,
            "type" : "VEC3"
        },
        {
            "bufferView" : 2,
            "componentType" : 5126,
            "count" : 70,
            "type" : "VEC2"
        },
        {
            "bufferView" : 3,
            "componentType" : 5123,
            "count" : 270,
            "type" : "SCALAR"
        },
        {
            "bufferView" : 4,
            "componentType" : 5126,
            "count" : 244,
            "max" : [
                1.8814356327056885,
                70.54151153564453,
                0.5824887752532959
            ],
            "min" : [
                -1.9178414344787598,
                -9.789475440979004,
                -2.8549108505249023
            ],
            "type" : "VEC3"
        },
        {
            "bufferView" : 5,
            "componentType" : 5126,
            "count" : 244,
            "type" : "VEC3"
        },
        {
            "bufferView" : 6,
            "componentType" : 5126,
            "count" : 244,
            "type" : "VEC2"
        },
        {
            "bufferView" : 7,
            "componentType" : 5123,
            "count" : 1398,
            "type" : "SCALAR"
        },
        {
            "bufferView" : 8,
            "componentType" : 5126,
            "count" : 36,
            "max" : [
                1,
                0,
                1
            ],
            "min" : [
                -1.0192604064941406,
                -1.6756516695022583,
                -1.000000238418579
            ],
            "type" : "VEC3"
        },
        {
            "bufferView" : 9,
            "componentType" : 5126,
            "count" : 36,
            "type" : "VEC3"
        },
        {
            "bufferView" : 10,
            "componentType" : 5126,
            "count" : 36,
            "type" : "VEC2"
        },
        {
            "bufferView" : 11,
            "componentType" : 5123,
            "count" : 174,
            "type" : "SCALAR"
        }
    ],
    "bufferViews" : [
        {
            "buffer" : 0,
            "byteLength" : 840,
            "byteOffset" : 0
        },
        {
            "buffer" : 0,
            "byteLength" : 840,
            "byteOffset" : 840
        },
        {
            "buffer" : 0,
            "byteLength" : 560,
            "byteOffset" : 1680
        },
        {
            "buffer" : 0,
            "byteLength" : 540,
            "byteOffset" : 2240
        },
        {
            "buffer" : 0,
            "byteLength" : 2928,
            "byteOffset" : 2780
        },
        {
            "buffer" : 0,
            "byteLength" : 2928,
            "byteOffset" : 5708
        },
        {
            "buffer" : 0,
            "byteLength" : 1952,
            "byteOffset" : 8636
        },
        {
            "buffer" : 0,
            "byteLength" : 2796,
            "byteOffset" : 10588
        },
        {
            "buffer" : 0,
            "byteLength" : 432,
            "byteOffset" : 13384
        },
        {
            "buffer" : 0,
            "byteLength" : 432,
            "byteOffset" : 13816
        },
        {
            "buffer" : 0,
            "byteLength" : 288,
            "byteOffset" : 14248
        },
        {
            "buffer" : 0,
            "byteLength" : 348,
            "byteOffset" : 14536
        }
    ],
    "buffers" : [
        {
            "byteLength" : 14884,
            "uri" : "data:application/octet-stream;base64,"
        }
    ]
}
